<mxfile host="app.diagrams.net" agent="Mozilla/5.0 (Windows NT 10.0; Win64; x64) AppleWebKit/537.36 (KHTML, like Gecko) Chrome/133.0.0.0 Safari/537.36 Edg/133.0.0.0" version="26.0.11">
  <diagram name="Lesvoorbereiding Flow" id="7rseqRViYhGqCaX6NJjd">
    <mxGraphModel dx="1901" dy="1041" grid="1" gridSize="10" guides="1" tooltips="1" connect="1" arrows="1" fold="1" page="1" pageScale="1" pageWidth="827" pageHeight="1169" math="0" shadow="0">
      <root>
        <mxCell id="0" />
        <mxCell id="1" parent="0" />
        <mxCell id="oXa6fqSTxTpZ-BD5Uz6H-146" value="" style="whiteSpace=wrap;strokeWidth=2;" vertex="1" parent="1">
          <mxGeometry x="1821" y="3070" width="2877" height="1340" as="geometry" />
        </mxCell>
        <mxCell id="oXa6fqSTxTpZ-BD5Uz6H-1" value="Start" style="strokeWidth=2;html=1;shape=mxgraph.flowchart.terminator;whiteSpace=wrap;fillColor=#B87333;strokeColor=#8B4513;fontColor=#FFE5B4;rounded=1;" vertex="1" parent="1">
          <mxGeometry x="360" y="20" width="100" height="40" as="geometry" />
        </mxCell>
        <mxCell id="oXa6fqSTxTpZ-BD5Uz6H-2" value="Bestand Upload&#xa;- PDF, Word, afbeeldingen&#xa;- Max 10MB" style="shape=process;whiteSpace=wrap;html=1;backgroundOutline=1;fillColor=#B87333;strokeColor=#8B4513;fontColor=#FFE5B4;rounded=1;" vertex="1" parent="1">
          <mxGeometry x="340" y="100" width="140" height="60" as="geometry" />
        </mxCell>
        <mxCell id="oXa6fqSTxTpZ-BD5Uz6H-3" value="Vak en Media Selectie" style="shape=process;whiteSpace=wrap;html=1;backgroundOutline=1;fillColor=#B87333;strokeColor=#8B4513;fontColor=#FFE5B4;rounded=1;" vertex="1" parent="1">
          <mxGeometry x="340" y="200" width="140" height="60" as="geometry" />
        </mxCell>
        <mxCell id="oXa6fqSTxTpZ-BD5Uz6H-4" value="Lesvoorbereiding&#xa;Type" style="rhombus;whiteSpace=wrap;html=1;fillColor=#CFB53B;strokeColor=#966F33;fontColor=#000000;" vertex="1" parent="1">
          <mxGeometry x="345" y="300" width="130" height="130" as="geometry" />
        </mxCell>
        <mxCell id="oXa6fqSTxTpZ-BD5Uz6H-5" value="Selecteer les uit&#xa;lesbundel" style="shape=process;whiteSpace=wrap;html=1;backgroundOutline=1;fillColor=#B87333;strokeColor=#8B4513;fontColor=#FFE5B4;rounded=1;" vertex="1" parent="1">
          <mxGeometry x="200" y="400" width="140" height="60" as="geometry" />
        </mxCell>
        <mxCell id="oXa6fqSTxTpZ-BD5Uz6H-6" value="Meerdere&#xa;lesvoorbereidingen" style="shape=process;whiteSpace=wrap;html=1;backgroundOutline=1;fillColor=#B87333;strokeColor=#8B4513;fontColor=#FFE5B4;rounded=1;" vertex="1" parent="1">
          <mxGeometry x="480" y="400" width="140" height="60" as="geometry" />
        </mxCell>
        <mxCell id="oXa6fqSTxTpZ-BD5Uz6H-7" value="AI Opties&#xa;(Optioneel)" style="shape=process;whiteSpace=wrap;html=1;backgroundOutline=1;fillColor=#582C83;strokeColor=#301934;fontColor=#FFE5B4;rounded=1;" vertex="1" parent="1">
          <mxGeometry x="340" y="500" width="140" height="60" as="geometry" />
        </mxCell>
        <mxCell id="oXa6fqSTxTpZ-BD5Uz6H-8" value="Onderdelen Selectie" style="shape=process;whiteSpace=wrap;html=1;backgroundOutline=1;fillColor=#B87333;strokeColor=#8B4513;fontColor=#FFE5B4;rounded=1;" vertex="1" parent="1">
          <mxGeometry x="340" y="600" width="140" height="60" as="geometry" />
        </mxCell>
        <mxCell id="oXa6fqSTxTpZ-BD5Uz6H-9" value="Genereren" style="shape=process;whiteSpace=wrap;html=1;backgroundOutline=1;fillColor=#800020;strokeColor=#85144b;fontColor=#FFE5B4;rounded=1;" vertex="1" parent="1">
          <mxGeometry x="340" y="700" width="140" height="60" as="geometry" />
        </mxCell>
        <mxCell id="oXa6fqSTxTpZ-BD5Uz6H-10" value="Export Opties" style="shape=process;whiteSpace=wrap;html=1;backgroundOutline=1;fillColor=#B87333;strokeColor=#8B4513;fontColor=#FFE5B4;rounded=1;" vertex="1" parent="1">
          <mxGeometry x="340" y="800" width="140" height="60" as="geometry" />
        </mxCell>
        <mxCell id="oXa6fqSTxTpZ-BD5Uz6H-11" value="Einde" style="strokeWidth=2;html=1;shape=mxgraph.flowchart.terminator;whiteSpace=wrap;fillColor=#B87333;strokeColor=#8B4513;fontColor=#FFE5B4;rounded=1;" vertex="1" parent="1">
          <mxGeometry x="360" y="900" width="100" height="40" as="geometry" />
        </mxCell>
        <mxCell id="oXa6fqSTxTpZ-BD5Uz6H-12" value="" style="endArrow=classic;html=1;strokeColor=#704214;strokeWidth=2;" edge="1" parent="1" source="oXa6fqSTxTpZ-BD5Uz6H-1" target="oXa6fqSTxTpZ-BD5Uz6H-2">
          <mxGeometry relative="1" as="geometry" />
        </mxCell>
        <mxCell id="oXa6fqSTxTpZ-BD5Uz6H-13" value="" style="endArrow=classic;html=1;strokeColor=#704214;strokeWidth=2;" edge="1" parent="1" source="oXa6fqSTxTpZ-BD5Uz6H-2" target="oXa6fqSTxTpZ-BD5Uz6H-3">
          <mxGeometry relative="1" as="geometry" />
        </mxCell>
        <mxCell id="oXa6fqSTxTpZ-BD5Uz6H-14" value="" style="endArrow=classic;html=1;strokeColor=#704214;strokeWidth=2;" edge="1" parent="1" source="oXa6fqSTxTpZ-BD5Uz6H-3" target="oXa6fqSTxTpZ-BD5Uz6H-4">
          <mxGeometry relative="1" as="geometry" />
        </mxCell>
        <mxCell id="oXa6fqSTxTpZ-BD5Uz6H-15" value="Single" style="endArrow=classic;html=1;strokeColor=#704214;strokeWidth=2;" edge="1" parent="1" source="oXa6fqSTxTpZ-BD5Uz6H-4" target="oXa6fqSTxTpZ-BD5Uz6H-5">
          <mxGeometry relative="1" as="geometry" />
        </mxCell>
        <mxCell id="oXa6fqSTxTpZ-BD5Uz6H-16" value="Multiple" style="endArrow=classic;html=1;strokeColor=#704214;strokeWidth=2;" edge="1" parent="1" source="oXa6fqSTxTpZ-BD5Uz6H-4" target="oXa6fqSTxTpZ-BD5Uz6H-6">
          <mxGeometry relative="1" as="geometry" />
        </mxCell>
        <mxCell id="oXa6fqSTxTpZ-BD5Uz6H-17" value="" style="endArrow=classic;html=1;strokeColor=#704214;strokeWidth=2;" edge="1" parent="1" source="oXa6fqSTxTpZ-BD5Uz6H-5" target="oXa6fqSTxTpZ-BD5Uz6H-7">
          <mxGeometry relative="1" as="geometry">
            <Array as="points">
              <mxPoint x="270" y="480" />
              <mxPoint x="410" y="480" />
            </Array>
          </mxGeometry>
        </mxCell>
        <mxCell id="oXa6fqSTxTpZ-BD5Uz6H-18" value="" style="endArrow=classic;html=1;strokeColor=#704214;strokeWidth=2;" edge="1" parent="1" source="oXa6fqSTxTpZ-BD5Uz6H-6" target="oXa6fqSTxTpZ-BD5Uz6H-7">
          <mxGeometry relative="1" as="geometry">
            <Array as="points">
              <mxPoint x="550" y="480" />
              <mxPoint x="410" y="480" />
            </Array>
          </mxGeometry>
        </mxCell>
        <mxCell id="oXa6fqSTxTpZ-BD5Uz6H-19" value="" style="endArrow=classic;html=1;strokeColor=#704214;strokeWidth=2;" edge="1" parent="1" source="oXa6fqSTxTpZ-BD5Uz6H-7" target="oXa6fqSTxTpZ-BD5Uz6H-8">
          <mxGeometry relative="1" as="geometry" />
        </mxCell>
        <mxCell id="oXa6fqSTxTpZ-BD5Uz6H-20" value="" style="endArrow=classic;html=1;strokeColor=#704214;strokeWidth=2;" edge="1" parent="1" source="oXa6fqSTxTpZ-BD5Uz6H-8" target="oXa6fqSTxTpZ-BD5Uz6H-9">
          <mxGeometry relative="1" as="geometry" />
        </mxCell>
        <mxCell id="oXa6fqSTxTpZ-BD5Uz6H-21" value="" style="endArrow=classic;html=1;strokeColor=#704214;strokeWidth=2;" edge="1" parent="1" source="oXa6fqSTxTpZ-BD5Uz6H-9" target="oXa6fqSTxTpZ-BD5Uz6H-10">
          <mxGeometry relative="1" as="geometry" />
        </mxCell>
        <mxCell id="oXa6fqSTxTpZ-BD5Uz6H-22" value="" style="endArrow=classic;html=1;strokeColor=#704214;strokeWidth=2;" edge="1" parent="1" source="oXa6fqSTxTpZ-BD5Uz6H-10" target="oXa6fqSTxTpZ-BD5Uz6H-11">
          <mxGeometry relative="1" as="geometry" />
        </mxCell>
        <mxCell id="oXa6fqSTxTpZ-BD5Uz6H-23" value="Export" style="whiteSpace=wrap;strokeWidth=2;" vertex="1" parent="1">
          <mxGeometry x="200" y="3252" width="525" height="281" as="geometry" />
        </mxCell>
        <mxCell id="oXa6fqSTxTpZ-BD5Uz6H-24" value="7. Resultaat Weergave" style="whiteSpace=wrap;strokeWidth=2;" vertex="1" parent="1">
          <mxGeometry x="745" y="2908" width="335" height="826" as="geometry" />
        </mxCell>
        <mxCell id="oXa6fqSTxTpZ-BD5Uz6H-25" value="Onderdelen" style="whiteSpace=wrap;strokeWidth=2;" vertex="1" parent="1">
          <mxGeometry x="1130" y="2730" width="628" height="650" as="geometry" />
        </mxCell>
        <mxCell id="oXa6fqSTxTpZ-BD5Uz6H-26" value="AI Verbetering" style="whiteSpace=wrap;strokeWidth=2;" vertex="1" parent="1">
          <mxGeometry x="1880" y="2627" width="588" height="281" as="geometry" />
        </mxCell>
        <mxCell id="oXa6fqSTxTpZ-BD5Uz6H-27" value="Voorbereiding Keuzes" style="whiteSpace=wrap;strokeWidth=2;" vertex="1" parent="1">
          <mxGeometry x="1710" y="2020" width="561" height="522" as="geometry" />
        </mxCell>
        <mxCell id="oXa6fqSTxTpZ-BD5Uz6H-28" value="Vak en Media" style="whiteSpace=wrap;strokeWidth=2;" vertex="1" parent="1">
          <mxGeometry x="2330" y="1730" width="950" height="474" as="geometry" />
        </mxCell>
        <mxCell id="oXa6fqSTxTpZ-BD5Uz6H-29" value="Bestand Upload" style="whiteSpace=wrap;strokeWidth=2;" vertex="1" parent="1">
          <mxGeometry x="2518" y="1024" width="574" height="545" as="geometry" />
        </mxCell>
        <mxCell id="oXa6fqSTxTpZ-BD5Uz6H-30" value="Start" style="whiteSpace=wrap;strokeWidth=2;" vertex="1" parent="1">
          <mxGeometry x="2830" y="920" width="95" height="54" as="geometry" />
        </mxCell>
        <mxCell id="oXa6fqSTxTpZ-BD5Uz6H-31" value="1. Bestand Upload" style="whiteSpace=wrap;strokeWidth=2;" vertex="1" parent="1">
          <mxGeometry x="2748" y="1049" width="260" height="78" as="geometry" />
        </mxCell>
        <mxCell id="oXa6fqSTxTpZ-BD5Uz6H-32" value="Controleer Bestand" style="rhombus;strokeWidth=2;whiteSpace=wrap;" vertex="1" parent="1">
          <mxGeometry x="2847" y="1177" width="192" height="192" as="geometry" />
        </mxCell>
        <mxCell id="oXa6fqSTxTpZ-BD5Uz6H-33" value="Fout:&#xa;- Max 10MB&#xa;- PDF/Word/Afbeeldingen" style="whiteSpace=wrap;strokeWidth=2;" vertex="1" parent="1">
          <mxGeometry x="2765" y="1442" width="245" height="102" as="geometry" />
        </mxCell>
        <mxCell id="oXa6fqSTxTpZ-BD5Uz6H-34" value="Preview Lijst" style="whiteSpace=wrap;strokeWidth=2;" vertex="1" parent="1">
          <mxGeometry x="2563" y="1466" width="152" height="54" as="geometry" />
        </mxCell>
        <mxCell id="oXa6fqSTxTpZ-BD5Uz6H-35" value="2. Vak en Media Selectie" style="whiteSpace=wrap;strokeWidth=2;" vertex="1" parent="1">
          <mxGeometry x="2508" y="1736" width="260" height="78" as="geometry" />
        </mxCell>
        <mxCell id="oXa6fqSTxTpZ-BD5Uz6H-36" value="Vakkeuze" style="rhombus;strokeWidth=2;whiteSpace=wrap;" vertex="1" parent="1">
          <mxGeometry x="2578" y="1864" width="120" height="120" as="geometry" />
        </mxCell>
        <mxCell id="oXa6fqSTxTpZ-BD5Uz6H-37" value="- Wereldoriëntatie&#xa;- Wiskunde&#xa;- Frans&#xa;- Muzische vorming&#xa;- Les over media" style="whiteSpace=wrap;strokeWidth=2;" vertex="1" parent="1">
          <mxGeometry x="2963" y="2082" width="260" height="78" as="geometry" />
        </mxCell>
        <mxCell id="oXa6fqSTxTpZ-BD5Uz6H-38" value="Media Checkbox Uitgeschakeld" style="whiteSpace=wrap;strokeWidth=2;" vertex="1" parent="1">
          <mxGeometry x="2653" y="2082" width="260" height="78" as="geometry" />
        </mxCell>
        <mxCell id="oXa6fqSTxTpZ-BD5Uz6H-39" value="Media Checkbox Beschikbaar voor lessen die stukken media aanraken" style="whiteSpace=wrap;strokeWidth=2;" vertex="1" parent="1">
          <mxGeometry x="2363" y="2082" width="260" height="78" as="geometry" />
        </mxCell>
        <mxCell id="oXa6fqSTxTpZ-BD5Uz6H-40" value="3. Lesvoorbereiding Opties" style="whiteSpace=wrap;strokeWidth=2;" vertex="1" parent="1">
          <mxGeometry x="1783" y="2030" width="260" height="78" as="geometry" />
        </mxCell>
        <mxCell id="oXa6fqSTxTpZ-BD5Uz6H-41" value="Kies Type" style="rhombus;strokeWidth=2;whiteSpace=wrap;" vertex="1" parent="1">
          <mxGeometry x="1821" y="2180" width="120" height="120" as="geometry" />
        </mxCell>
        <mxCell id="oXa6fqSTxTpZ-BD5Uz6H-42" value="Les uit Bundel&#xa;Paginaselectie" style="whiteSpace=wrap;strokeWidth=2;" vertex="1" parent="1">
          <mxGeometry x="2055" y="2400" width="163" height="78" as="geometry" />
        </mxCell>
        <mxCell id="oXa6fqSTxTpZ-BD5Uz6H-43" value="Meerdere Lessen&#xa;- Automatische nummering van aantal lessen&#xa;- Paginaselectie&#xa;- Verwijder optie" style="whiteSpace=wrap;strokeWidth=2;" vertex="1" parent="1">
          <mxGeometry x="1752" y="2376" width="253" height="126" as="geometry" />
        </mxCell>
        <mxCell id="oXa6fqSTxTpZ-BD5Uz6H-44" value="4. AI Opties" style="whiteSpace=wrap;strokeWidth=2;" vertex="1" parent="1">
          <mxGeometry x="1915" y="2652" width="260" height="78" as="geometry" />
        </mxCell>
        <mxCell id="oXa6fqSTxTpZ-BD5Uz6H-45" value="Lescontext &amp; Expertise" style="whiteSpace=wrap;strokeWidth=2;" vertex="1" parent="1">
          <mxGeometry x="2207" y="2817" width="225" height="54" as="geometry" />
        </mxCell>
        <mxCell id="oXa6fqSTxTpZ-BD5Uz6H-46" value="AI-gestuurde Vragen standaard aangevikt " style="whiteSpace=wrap;strokeWidth=2;" vertex="1" parent="1">
          <mxGeometry x="1953" y="2817" width="204" height="54" as="geometry" />
        </mxCell>
        <mxCell id="oXa6fqSTxTpZ-BD5Uz6H-47" value="5. Onderdelen Selectie" style="whiteSpace=wrap;strokeWidth=2;" vertex="1" parent="1">
          <mxGeometry x="1201" y="2755" width="260" height="78" as="geometry" />
        </mxCell>
        <mxCell id="oXa6fqSTxTpZ-BD5Uz6H-89" style="edgeStyle=orthogonalEdgeStyle;rounded=0;orthogonalLoop=1;jettySize=auto;html=1;" edge="1" parent="1" source="oXa6fqSTxTpZ-BD5Uz6H-48">
          <mxGeometry relative="1" as="geometry">
            <mxPoint x="2180" y="3055" as="targetPoint" />
          </mxGeometry>
        </mxCell>
        <mxCell id="oXa6fqSTxTpZ-BD5Uz6H-48" value="Standaard Aangevinkt:&#xa;✓ Samenvatting&#xa;✓ Lesdoelen&#xa;✓ Lesschema&#xa;✓ Werkvormen&#xa;✓ Leerplandoelen&#xa;✓ Instructies&#xa;✓ Begrippenlijst&#xa;✓ Flashkaarten" style="whiteSpace=wrap;strokeWidth=2;" vertex="1" parent="1">
          <mxGeometry x="1495" y="2932" width="221" height="246" as="geometry" />
        </mxCell>
        <mxCell id="oXa6fqSTxTpZ-BD5Uz6H-49" value="Meerdere&#xa;Lessen?" style="rhombus;strokeWidth=2;whiteSpace=wrap;" vertex="1" parent="1">
          <mxGeometry x="1270" y="2940" width="146" height="146" as="geometry" />
        </mxCell>
        <mxCell id="oXa6fqSTxTpZ-BD5Uz6H-50" value="Leerlijn Beschikbaar" style="whiteSpace=wrap;strokeWidth=2;" vertex="1" parent="1">
          <mxGeometry x="1395" y="3289" width="206" height="54" as="geometry" />
        </mxCell>
        <mxCell id="oXa6fqSTxTpZ-BD5Uz6H-51" value="Leerlijn Verborgen" style="whiteSpace=wrap;strokeWidth=2;" vertex="1" parent="1">
          <mxGeometry x="1152" y="3289" width="193" height="54" as="geometry" />
        </mxCell>
        <mxCell id="oXa6fqSTxTpZ-BD5Uz6H-52" value="6. Genereren" style="whiteSpace=wrap;strokeWidth=2;" vertex="1" parent="1">
          <mxGeometry x="780" y="3017" width="260" height="78" as="geometry" />
        </mxCell>
        <mxCell id="oXa6fqSTxTpZ-BD5Uz6H-53" value="Gegenereerde Inhoud" style="whiteSpace=wrap;strokeWidth=2;" vertex="1" parent="1">
          <mxGeometry x="813" y="3289" width="214" height="54" as="geometry" />
        </mxCell>
        <mxCell id="oXa6fqSTxTpZ-BD5Uz6H-54" value="Alle Onderdelen&#xa;Met Bewerkopties" style="whiteSpace=wrap;strokeWidth=2;" vertex="1" parent="1">
          <mxGeometry x="826" y="3430" width="188" height="78" as="geometry" />
        </mxCell>
        <mxCell id="oXa6fqSTxTpZ-BD5Uz6H-55" value="Bewerken in ux ui, weing clicks&#xa;- autsave&#xa;- Toevoegen/Verwijderen" style="whiteSpace=wrap;strokeWidth=2;" vertex="1" parent="1">
          <mxGeometry x="799" y="3583" width="241" height="126" as="geometry" />
        </mxCell>
        <mxCell id="oXa6fqSTxTpZ-BD5Uz6H-56" value="8. Export Opties" style="whiteSpace=wrap;strokeWidth=2;" vertex="1" parent="1">
          <mxGeometry x="309" y="3277" width="260" height="78" as="geometry" />
        </mxCell>
        <mxCell id="oXa6fqSTxTpZ-BD5Uz6H-57" value="Print Volledig" style="whiteSpace=wrap;strokeWidth=2;" vertex="1" parent="1">
          <mxGeometry x="508" y="3442" width="155" height="54" as="geometry" />
        </mxCell>
        <mxCell id="oXa6fqSTxTpZ-BD5Uz6H-58" value="Lesfiche Smartschool" style="whiteSpace=wrap;strokeWidth=2;" vertex="1" parent="1">
          <mxGeometry x="247" y="3442" width="211" height="54" as="geometry" />
        </mxCell>
        <mxCell id="oXa6fqSTxTpZ-BD5Uz6H-59" value="" style="curved=1;startArrow=none;endArrow=block;exitX=0.5;exitY=1;entryX=0.5;entryY=0;rounded=0;" edge="1" parent="1" source="oXa6fqSTxTpZ-BD5Uz6H-30" target="oXa6fqSTxTpZ-BD5Uz6H-31">
          <mxGeometry relative="1" as="geometry">
            <Array as="points" />
          </mxGeometry>
        </mxCell>
        <mxCell id="oXa6fqSTxTpZ-BD5Uz6H-60" value="" style="curved=1;startArrow=none;endArrow=block;exitX=0.65;exitY=1;entryX=0.5;entryY=0;rounded=0;" edge="1" parent="1" source="oXa6fqSTxTpZ-BD5Uz6H-31" target="oXa6fqSTxTpZ-BD5Uz6H-32">
          <mxGeometry relative="1" as="geometry">
            <Array as="points">
              <mxPoint x="2943" y="1152" />
            </Array>
          </mxGeometry>
        </mxCell>
        <mxCell id="oXa6fqSTxTpZ-BD5Uz6H-61" value="Ongeldig" style="curved=1;startArrow=none;endArrow=block;exitX=0.65;exitY=1;entryX=0.73;entryY=0;rounded=0;" edge="1" parent="1" source="oXa6fqSTxTpZ-BD5Uz6H-32" target="oXa6fqSTxTpZ-BD5Uz6H-33">
          <mxGeometry relative="1" as="geometry">
            <Array as="points">
              <mxPoint x="2982" y="1405" />
            </Array>
          </mxGeometry>
        </mxCell>
        <mxCell id="oXa6fqSTxTpZ-BD5Uz6H-62" value="" style="curved=1;startArrow=none;endArrow=block;exitX=0.07;exitY=0;entryX=0.1;entryY=1;rounded=0;" edge="1" parent="1" source="oXa6fqSTxTpZ-BD5Uz6H-33" target="oXa6fqSTxTpZ-BD5Uz6H-31">
          <mxGeometry relative="1" as="geometry">
            <Array as="points">
              <mxPoint x="2708" y="1405" />
              <mxPoint x="2708" y="1152" />
            </Array>
          </mxGeometry>
        </mxCell>
        <mxCell id="oXa6fqSTxTpZ-BD5Uz6H-63" value="Geldig" style="curved=1;startArrow=none;endArrow=block;exitX=0.01;exitY=1;entryX=0.86;entryY=0;rounded=0;" edge="1" parent="1" source="oXa6fqSTxTpZ-BD5Uz6H-32" target="oXa6fqSTxTpZ-BD5Uz6H-34">
          <mxGeometry relative="1" as="geometry">
            <Array as="points">
              <mxPoint x="2814" y="1405" />
            </Array>
          </mxGeometry>
        </mxCell>
        <mxCell id="oXa6fqSTxTpZ-BD5Uz6H-64" value="" style="curved=1;startArrow=none;endArrow=block;exitX=0.5;exitY=1;entryX=0.5;entryY=0;rounded=0;" edge="1" parent="1" source="oXa6fqSTxTpZ-BD5Uz6H-34" target="oXa6fqSTxTpZ-BD5Uz6H-35">
          <mxGeometry relative="1" as="geometry">
            <Array as="points" />
          </mxGeometry>
        </mxCell>
        <mxCell id="oXa6fqSTxTpZ-BD5Uz6H-65" value="" style="curved=1;startArrow=none;endArrow=block;exitX=0.5;exitY=1;entryX=0.5;entryY=0;rounded=0;" edge="1" parent="1" source="oXa6fqSTxTpZ-BD5Uz6H-35" target="oXa6fqSTxTpZ-BD5Uz6H-36">
          <mxGeometry relative="1" as="geometry">
            <Array as="points" />
          </mxGeometry>
        </mxCell>
        <mxCell id="oXa6fqSTxTpZ-BD5Uz6H-66" value="" style="curved=1;startArrow=none;endArrow=block;exitX=1;exitY=0.61;entryX=0.5;entryY=0.01;rounded=0;" edge="1" parent="1" source="oXa6fqSTxTpZ-BD5Uz6H-36" target="oXa6fqSTxTpZ-BD5Uz6H-37">
          <mxGeometry relative="1" as="geometry">
            <Array as="points">
              <mxPoint x="3093" y="2021" />
            </Array>
          </mxGeometry>
        </mxCell>
        <mxCell id="oXa6fqSTxTpZ-BD5Uz6H-67" value="Media Les" style="curved=1;startArrow=none;endArrow=block;exitX=1;exitY=0.84;entryX=0.5;entryY=0.01;rounded=0;" edge="1" parent="1" source="oXa6fqSTxTpZ-BD5Uz6H-36" target="oXa6fqSTxTpZ-BD5Uz6H-38">
          <mxGeometry relative="1" as="geometry">
            <Array as="points">
              <mxPoint x="2783" y="2021" />
            </Array>
          </mxGeometry>
        </mxCell>
        <mxCell id="oXa6fqSTxTpZ-BD5Uz6H-68" value="Anders" style="curved=1;startArrow=none;endArrow=block;exitX=0;exitY=0.8;entryX=0.5;entryY=0.01;rounded=0;" edge="1" parent="1" source="oXa6fqSTxTpZ-BD5Uz6H-36">
          <mxGeometry relative="1" as="geometry">
            <Array as="points">
              <mxPoint x="2473" y="2021" />
            </Array>
            <mxPoint x="2473" y="2082" as="targetPoint" />
          </mxGeometry>
        </mxCell>
        <mxCell id="oXa6fqSTxTpZ-BD5Uz6H-69" value="" style="curved=1;startArrow=none;endArrow=block;exitX=0;exitY=0.69;entryX=1;entryY=0.27;rounded=0;" edge="1" parent="1" source="oXa6fqSTxTpZ-BD5Uz6H-36" target="oXa6fqSTxTpZ-BD5Uz6H-40">
          <mxGeometry relative="1" as="geometry">
            <Array as="points">
              <mxPoint x="2366" y="1969" />
              <mxPoint x="2360" y="1990" />
            </Array>
          </mxGeometry>
        </mxCell>
        <mxCell id="oXa6fqSTxTpZ-BD5Uz6H-70" value="" style="curved=1;startArrow=none;endArrow=block;exitX=0.5;exitY=1.01;entryX=0.5;entryY=0;rounded=0;" edge="1" parent="1" source="oXa6fqSTxTpZ-BD5Uz6H-40" target="oXa6fqSTxTpZ-BD5Uz6H-41">
          <mxGeometry relative="1" as="geometry">
            <Array as="points" />
          </mxGeometry>
        </mxCell>
        <mxCell id="oXa6fqSTxTpZ-BD5Uz6H-71" value="Lesbundel" style="curved=1;startArrow=none;endArrow=block;exitX=1;exitY=0.72;entryX=0.5;entryY=0.01;rounded=0;" edge="1" parent="1" source="oXa6fqSTxTpZ-BD5Uz6H-41" target="oXa6fqSTxTpZ-BD5Uz6H-42">
          <mxGeometry relative="1" as="geometry">
            <Array as="points">
              <mxPoint x="2136" y="2340" />
            </Array>
          </mxGeometry>
        </mxCell>
        <mxCell id="oXa6fqSTxTpZ-BD5Uz6H-72" value="Meerdere" style="curved=1;startArrow=none;endArrow=block;exitX=0.32;exitY=1;entryX=0.5;entryY=0;rounded=0;" edge="1" parent="1" source="oXa6fqSTxTpZ-BD5Uz6H-41" target="oXa6fqSTxTpZ-BD5Uz6H-43">
          <mxGeometry relative="1" as="geometry">
            <Array as="points">
              <mxPoint x="1879" y="2340" />
            </Array>
          </mxGeometry>
        </mxCell>
        <mxCell id="oXa6fqSTxTpZ-BD5Uz6H-73" value="" style="curved=1;startArrow=none;endArrow=block;exitX=0.5;exitY=1.01;entryX=1;entryY=0.03;rounded=0;" edge="1" parent="1" source="oXa6fqSTxTpZ-BD5Uz6H-42" target="oXa6fqSTxTpZ-BD5Uz6H-44">
          <mxGeometry relative="1" as="geometry">
            <Array as="points">
              <mxPoint x="2136" y="2577" />
            </Array>
          </mxGeometry>
        </mxCell>
        <mxCell id="oXa6fqSTxTpZ-BD5Uz6H-74" value="" style="curved=1;startArrow=none;endArrow=block;exitX=0.5;exitY=1;entryX=0.42;entryY=0.01;rounded=0;" edge="1" parent="1" source="oXa6fqSTxTpZ-BD5Uz6H-43" target="oXa6fqSTxTpZ-BD5Uz6H-44">
          <mxGeometry relative="1" as="geometry">
            <Array as="points">
              <mxPoint x="1879" y="2577" />
            </Array>
          </mxGeometry>
        </mxCell>
        <mxCell id="oXa6fqSTxTpZ-BD5Uz6H-75" value="" style="curved=1;startArrow=none;endArrow=block;exitX=1;exitY=0.89;entryX=0.5;entryY=0.01;rounded=0;" edge="1" parent="1" source="oXa6fqSTxTpZ-BD5Uz6H-44" target="oXa6fqSTxTpZ-BD5Uz6H-45">
          <mxGeometry relative="1" as="geometry">
            <Array as="points">
              <mxPoint x="2320" y="2755" />
            </Array>
          </mxGeometry>
        </mxCell>
        <mxCell id="oXa6fqSTxTpZ-BD5Uz6H-76" value="" style="curved=1;startArrow=none;endArrow=block;exitX=0.52;exitY=1.01;entryX=0.5;entryY=0.01;rounded=0;" edge="1" parent="1" source="oXa6fqSTxTpZ-BD5Uz6H-44" target="oXa6fqSTxTpZ-BD5Uz6H-46">
          <mxGeometry relative="1" as="geometry">
            <Array as="points">
              <mxPoint x="1923" y="2705" />
            </Array>
          </mxGeometry>
        </mxCell>
        <mxCell id="oXa6fqSTxTpZ-BD5Uz6H-77" value="" style="curved=1;startArrow=none;endArrow=block;exitX=1;exitY=0.93;entryX=0.5;entryY=0;rounded=0;" edge="1" parent="1" source="oXa6fqSTxTpZ-BD5Uz6H-47" target="oXa6fqSTxTpZ-BD5Uz6H-48">
          <mxGeometry relative="1" as="geometry">
            <Array as="points">
              <mxPoint x="1583" y="2858" />
            </Array>
          </mxGeometry>
        </mxCell>
        <mxCell id="oXa6fqSTxTpZ-BD5Uz6H-78" value="" style="curved=1;startArrow=none;endArrow=block;exitX=0.52;exitY=1.01;entryX=0.5;entryY=0;rounded=0;" edge="1" parent="1" source="oXa6fqSTxTpZ-BD5Uz6H-47" target="oXa6fqSTxTpZ-BD5Uz6H-49">
          <mxGeometry relative="1" as="geometry">
            <Array as="points">
              <mxPoint x="1341" y="2858" />
            </Array>
          </mxGeometry>
        </mxCell>
        <mxCell id="oXa6fqSTxTpZ-BD5Uz6H-79" value="Ja" style="curved=1;startArrow=none;endArrow=block;exitX=0.99;exitY=0.99;entryX=0.5;entryY=0.01;rounded=0;" edge="1" parent="1" source="oXa6fqSTxTpZ-BD5Uz6H-49" target="oXa6fqSTxTpZ-BD5Uz6H-50">
          <mxGeometry relative="1" as="geometry">
            <Array as="points">
              <mxPoint x="1498" y="3216" />
            </Array>
          </mxGeometry>
        </mxCell>
        <mxCell id="oXa6fqSTxTpZ-BD5Uz6H-80" value="Nee" style="curved=1;startArrow=none;endArrow=block;exitX=0.21;exitY=0.99;entryX=0.5;entryY=0.01;rounded=0;" edge="1" parent="1" source="oXa6fqSTxTpZ-BD5Uz6H-49" target="oXa6fqSTxTpZ-BD5Uz6H-51">
          <mxGeometry relative="1" as="geometry">
            <Array as="points">
              <mxPoint x="1248" y="3216" />
            </Array>
          </mxGeometry>
        </mxCell>
        <mxCell id="oXa6fqSTxTpZ-BD5Uz6H-81" value="" style="curved=1;startArrow=none;endArrow=block;exitX=0.51;exitY=1.01;entryX=0.5;entryY=0.01;rounded=0;" edge="1" parent="1" source="oXa6fqSTxTpZ-BD5Uz6H-52" target="oXa6fqSTxTpZ-BD5Uz6H-53">
          <mxGeometry relative="1" as="geometry">
            <Array as="points">
              <mxPoint x="920" y="3216" />
            </Array>
          </mxGeometry>
        </mxCell>
        <mxCell id="oXa6fqSTxTpZ-BD5Uz6H-82" value="" style="curved=1;startArrow=none;endArrow=block;exitX=0.5;exitY=1.01;entryX=0.5;entryY=0.01;rounded=0;" edge="1" parent="1" source="oXa6fqSTxTpZ-BD5Uz6H-53" target="oXa6fqSTxTpZ-BD5Uz6H-54">
          <mxGeometry relative="1" as="geometry">
            <Array as="points" />
          </mxGeometry>
        </mxCell>
        <mxCell id="oXa6fqSTxTpZ-BD5Uz6H-83" value="" style="curved=1;startArrow=none;endArrow=block;exitX=0.5;exitY=1.01;entryX=0.5;entryY=0;rounded=0;" edge="1" parent="1" source="oXa6fqSTxTpZ-BD5Uz6H-54" target="oXa6fqSTxTpZ-BD5Uz6H-55">
          <mxGeometry relative="1" as="geometry">
            <Array as="points" />
          </mxGeometry>
        </mxCell>
        <mxCell id="oXa6fqSTxTpZ-BD5Uz6H-84" value="" style="curved=1;startArrow=none;endArrow=block;exitX=0.84;exitY=1.01;entryX=0.5;entryY=0.01;rounded=0;" edge="1" parent="1" source="oXa6fqSTxTpZ-BD5Uz6H-56" target="oXa6fqSTxTpZ-BD5Uz6H-57">
          <mxGeometry relative="1" as="geometry">
            <Array as="points">
              <mxPoint x="586" y="3380" />
            </Array>
          </mxGeometry>
        </mxCell>
        <mxCell id="oXa6fqSTxTpZ-BD5Uz6H-85" value="" style="curved=1;startArrow=none;endArrow=block;exitX=0.3;exitY=1.01;entryX=0.5;entryY=0.01;rounded=0;" edge="1" parent="1" source="oXa6fqSTxTpZ-BD5Uz6H-56" target="oXa6fqSTxTpZ-BD5Uz6H-58">
          <mxGeometry relative="1" as="geometry">
            <Array as="points">
              <mxPoint x="353" y="3380" />
            </Array>
          </mxGeometry>
        </mxCell>
        <mxCell id="oXa6fqSTxTpZ-BD5Uz6H-86" value="" style="curved=1;startArrow=none;endArrow=block;rounded=0;" edge="1" parent="1" source="oXa6fqSTxTpZ-BD5Uz6H-26" target="oXa6fqSTxTpZ-BD5Uz6H-47">
          <mxGeometry relative="1" as="geometry">
            <Array as="points" />
          </mxGeometry>
        </mxCell>
        <mxCell id="oXa6fqSTxTpZ-BD5Uz6H-87" value="" style="curved=1;startArrow=none;endArrow=block;rounded=0;" edge="1" parent="1" source="oXa6fqSTxTpZ-BD5Uz6H-25" target="oXa6fqSTxTpZ-BD5Uz6H-52">
          <mxGeometry relative="1" as="geometry">
            <Array as="points" />
          </mxGeometry>
        </mxCell>
        <mxCell id="oXa6fqSTxTpZ-BD5Uz6H-88" value="" style="curved=1;startArrow=none;endArrow=block;rounded=0;" edge="1" parent="1" source="oXa6fqSTxTpZ-BD5Uz6H-24" target="oXa6fqSTxTpZ-BD5Uz6H-56">
          <mxGeometry relative="1" as="geometry">
            <Array as="points" />
          </mxGeometry>
        </mxCell>
        <mxCell id="oXa6fqSTxTpZ-BD5Uz6H-91" value="Check Aangevinkte&#xa;Onderdelen" style="rhombus;strokeWidth=2;whiteSpace=wrap;" vertex="1" parent="1">
          <mxGeometry x="2991" y="3110" width="213" height="213" as="geometry" />
        </mxCell>
        <mxCell id="oXa6fqSTxTpZ-BD5Uz6H-92" value="Samenvatting?" style="rhombus;strokeWidth=2;whiteSpace=wrap;" vertex="1" parent="1">
          <mxGeometry x="1936" y="3637" width="157" height="157" as="geometry" />
        </mxCell>
        <mxCell id="oXa6fqSTxTpZ-BD5Uz6H-93" value="Genereer Samenvatting&#xa;- Kernpunten&#xa;- Overzicht lesinhoud" style="whiteSpace=wrap;strokeWidth=2;" vertex="1" parent="1">
          <mxGeometry x="1900" y="3901" width="229" height="102" as="geometry" />
        </mxCell>
        <mxCell id="oXa6fqSTxTpZ-BD5Uz6H-94" value="Lesdoelen?" style="rhombus;strokeWidth=2;whiteSpace=wrap;" vertex="1" parent="1">
          <mxGeometry x="2229" y="3650" width="132" height="132" as="geometry" />
        </mxCell>
        <mxCell id="oXa6fqSTxTpZ-BD5Uz6H-95" value="Genereer SMART Doelen&#xa;- Validatie&#xa;- Aanpasbare doelen" style="whiteSpace=wrap;strokeWidth=2;" vertex="1" parent="1">
          <mxGeometry x="2179" y="3901" width="232" height="102" as="geometry" />
        </mxCell>
        <mxCell id="oXa6fqSTxTpZ-BD5Uz6H-96" value="Lesschema?" style="rhombus;strokeWidth=2;whiteSpace=wrap;" vertex="1" parent="1">
          <mxGeometry x="2490" y="3648" width="137" height="137" as="geometry" />
        </mxCell>
        <mxCell id="oXa6fqSTxTpZ-BD5Uz6H-97" value="Genereer Schema&#xa;- Timeline indeling&#xa;- Fase-activiteiten" style="whiteSpace=wrap;strokeWidth=2;" vertex="1" parent="1">
          <mxGeometry x="2461" y="3901" width="194" height="102" as="geometry" />
        </mxCell>
        <mxCell id="oXa6fqSTxTpZ-BD5Uz6H-98" value="Werkvormen?" style="rhombus;strokeWidth=2;whiteSpace=wrap;" vertex="1" parent="1">
          <mxGeometry x="2741" y="3641" width="149" height="149" as="geometry" />
        </mxCell>
        <mxCell id="oXa6fqSTxTpZ-BD5Uz6H-99" value="Genereer Werkvormen&#xa;- Klassikaal&#xa;- Groepswerk&#xa;- Individueel" style="whiteSpace=wrap;strokeWidth=2;" vertex="1" parent="1">
          <mxGeometry x="2705" y="3889" width="221" height="126" as="geometry" />
        </mxCell>
        <mxCell id="oXa6fqSTxTpZ-BD5Uz6H-100" value="Leerplandoelen?" style="rhombus;strokeWidth=2;whiteSpace=wrap;" vertex="1" parent="1">
          <mxGeometry x="3012" y="3630" width="171" height="171" as="geometry" />
        </mxCell>
        <mxCell id="oXa6fqSTxTpZ-BD5Uz6H-101" value="Genereer Leerplandoelen&#xa;- Code + beschrijving&#xa;- Aanpasbaar" style="whiteSpace=wrap;strokeWidth=2;" vertex="1" parent="1">
          <mxGeometry x="2976" y="3901" width="243" height="102" as="geometry" />
        </mxCell>
        <mxCell id="oXa6fqSTxTpZ-BD5Uz6H-102" value="Instructies?" style="rhombus;strokeWidth=2;whiteSpace=wrap;" vertex="1" parent="1">
          <mxGeometry x="3305" y="3648" width="135" height="135" as="geometry" />
        </mxCell>
        <mxCell id="oXa6fqSTxTpZ-BD5Uz6H-103" value="Genereer Instructies&#xa;- Per lesfase&#xa;- Oefeningen&#xa;- Geheugensteun&#xa;- Extra hulp" style="whiteSpace=wrap;strokeWidth=2;" vertex="1" parent="1">
          <mxGeometry x="3269" y="3877" width="207" height="150" as="geometry" />
        </mxCell>
        <mxCell id="oXa6fqSTxTpZ-BD5Uz6H-104" value="Begrippenlijst?" style="rhombus;strokeWidth=2;whiteSpace=wrap;" vertex="1" parent="1">
          <mxGeometry x="3561" y="3636" width="160" height="160" as="geometry" />
        </mxCell>
        <mxCell id="oXa6fqSTxTpZ-BD5Uz6H-105" value="Genereer Begrippenlijst&#xa;- Term-definitie paren&#xa;- Bewerkbaar" style="whiteSpace=wrap;strokeWidth=2;" vertex="1" parent="1">
          <mxGeometry x="3525" y="3901" width="232" height="102" as="geometry" />
        </mxCell>
        <mxCell id="oXa6fqSTxTpZ-BD5Uz6H-106" value="Flashkaarten?" style="rhombus;strokeWidth=2;whiteSpace=wrap;" vertex="1" parent="1">
          <mxGeometry x="3843" y="3640" width="152" height="152" as="geometry" />
        </mxCell>
        <mxCell id="oXa6fqSTxTpZ-BD5Uz6H-107" value="Genereer Flashkaarten&#xa;- Voor/achterkant&#xa;- Draai-effect&#xa;- Edit mogelijkheden" style="whiteSpace=wrap;strokeWidth=2;" vertex="1" parent="1">
          <mxGeometry x="3807" y="3901" width="223" height="102" as="geometry" />
        </mxCell>
        <mxCell id="oXa6fqSTxTpZ-BD5Uz6H-108" value="Leerlijn mogelijk?" style="rhombus;strokeWidth=2;whiteSpace=wrap;" vertex="1" parent="1">
          <mxGeometry x="4192" y="3373" width="182" height="182" as="geometry" />
        </mxCell>
        <mxCell id="oXa6fqSTxTpZ-BD5Uz6H-109" value="Meerdere lessen?" style="rhombus;strokeWidth=2;whiteSpace=wrap;" vertex="1" parent="1">
          <mxGeometry x="4195" y="3628" width="176" height="176" as="geometry" />
        </mxCell>
        <mxCell id="oXa6fqSTxTpZ-BD5Uz6H-110" value="Genereer Leerlijn&#xa;- Voortgang&#xa;- Koppelingen" style="whiteSpace=wrap;strokeWidth=2;" vertex="1" parent="1">
          <mxGeometry x="4080" y="3901" width="187" height="102" as="geometry" />
        </mxCell>
        <mxCell id="oXa6fqSTxTpZ-BD5Uz6H-111" value="Skip Leerlijn" style="whiteSpace=wrap;strokeWidth=2;" vertex="1" parent="1">
          <mxGeometry x="4318" y="3925" width="150" height="54" as="geometry" />
        </mxCell>
        <mxCell id="oXa6fqSTxTpZ-BD5Uz6H-112" value="Combineer Resultaten" style="whiteSpace=wrap;strokeWidth=2;" vertex="1" parent="1">
          <mxGeometry x="3126" y="4077" width="218" height="54" as="geometry" />
        </mxCell>
        <mxCell id="oXa6fqSTxTpZ-BD5Uz6H-113" value="Toon Resultaat&#xa;met Bewerkopties" style="whiteSpace=wrap;strokeWidth=2;" vertex="1" parent="1">
          <mxGeometry x="3140" y="4181" width="189" height="78" as="geometry" />
        </mxCell>
        <mxCell id="oXa6fqSTxTpZ-BD5Uz6H-115" value="" style="curved=1;startArrow=none;endArrow=block;exitX=0;exitY=0.56;entryX=0.5;entryY=0;rounded=0;" edge="1" parent="1" source="oXa6fqSTxTpZ-BD5Uz6H-91" target="oXa6fqSTxTpZ-BD5Uz6H-92">
          <mxGeometry relative="1" as="geometry">
            <Array as="points">
              <mxPoint x="2014" y="3348" />
            </Array>
          </mxGeometry>
        </mxCell>
        <mxCell id="oXa6fqSTxTpZ-BD5Uz6H-116" value="Ja" style="curved=1;startArrow=none;endArrow=block;exitX=0.5;exitY=1;entryX=0.5;entryY=0;rounded=0;" edge="1" parent="1" source="oXa6fqSTxTpZ-BD5Uz6H-92" target="oXa6fqSTxTpZ-BD5Uz6H-93">
          <mxGeometry relative="1" as="geometry">
            <Array as="points" />
          </mxGeometry>
        </mxCell>
        <mxCell id="oXa6fqSTxTpZ-BD5Uz6H-117" value="" style="curved=1;startArrow=none;endArrow=block;exitX=0;exitY=0.58;entryX=0.5;entryY=0;rounded=0;" edge="1" parent="1" source="oXa6fqSTxTpZ-BD5Uz6H-91" target="oXa6fqSTxTpZ-BD5Uz6H-94">
          <mxGeometry relative="1" as="geometry">
            <Array as="points">
              <mxPoint x="2295" y="3348" />
            </Array>
          </mxGeometry>
        </mxCell>
        <mxCell id="oXa6fqSTxTpZ-BD5Uz6H-118" value="Ja" style="curved=1;startArrow=none;endArrow=block;exitX=0.5;exitY=1;entryX=0.5;entryY=0;rounded=0;" edge="1" parent="1" source="oXa6fqSTxTpZ-BD5Uz6H-94" target="oXa6fqSTxTpZ-BD5Uz6H-95">
          <mxGeometry relative="1" as="geometry">
            <Array as="points" />
          </mxGeometry>
        </mxCell>
        <mxCell id="oXa6fqSTxTpZ-BD5Uz6H-119" value="" style="curved=1;startArrow=none;endArrow=block;exitX=0;exitY=0.62;entryX=0.5;entryY=0;rounded=0;" edge="1" parent="1" source="oXa6fqSTxTpZ-BD5Uz6H-91" target="oXa6fqSTxTpZ-BD5Uz6H-96">
          <mxGeometry relative="1" as="geometry">
            <Array as="points">
              <mxPoint x="2558" y="3348" />
            </Array>
          </mxGeometry>
        </mxCell>
        <mxCell id="oXa6fqSTxTpZ-BD5Uz6H-120" value="Ja" style="curved=1;startArrow=none;endArrow=block;exitX=0.5;exitY=0.99;entryX=0.5;entryY=0;rounded=0;" edge="1" parent="1" source="oXa6fqSTxTpZ-BD5Uz6H-96" target="oXa6fqSTxTpZ-BD5Uz6H-97">
          <mxGeometry relative="1" as="geometry">
            <Array as="points" />
          </mxGeometry>
        </mxCell>
        <mxCell id="oXa6fqSTxTpZ-BD5Uz6H-121" value="" style="curved=1;startArrow=none;endArrow=block;exitX=0;exitY=0.73;entryX=0.5;entryY=0;rounded=0;" edge="1" parent="1" source="oXa6fqSTxTpZ-BD5Uz6H-91" target="oXa6fqSTxTpZ-BD5Uz6H-98">
          <mxGeometry relative="1" as="geometry">
            <Array as="points">
              <mxPoint x="2816" y="3348" />
            </Array>
          </mxGeometry>
        </mxCell>
        <mxCell id="oXa6fqSTxTpZ-BD5Uz6H-122" value="Ja" style="curved=1;startArrow=none;endArrow=block;exitX=0.5;exitY=1;entryX=0.5;entryY=0;rounded=0;" edge="1" parent="1" source="oXa6fqSTxTpZ-BD5Uz6H-98" target="oXa6fqSTxTpZ-BD5Uz6H-99">
          <mxGeometry relative="1" as="geometry">
            <Array as="points" />
          </mxGeometry>
        </mxCell>
        <mxCell id="oXa6fqSTxTpZ-BD5Uz6H-123" value="" style="curved=1;startArrow=none;endArrow=block;exitX=0.5;exitY=1;entryX=0.5;entryY=0;rounded=0;" edge="1" parent="1" source="oXa6fqSTxTpZ-BD5Uz6H-91" target="oXa6fqSTxTpZ-BD5Uz6H-100">
          <mxGeometry relative="1" as="geometry">
            <Array as="points" />
          </mxGeometry>
        </mxCell>
        <mxCell id="oXa6fqSTxTpZ-BD5Uz6H-124" value="Ja" style="curved=1;startArrow=none;endArrow=block;exitX=0.5;exitY=1;entryX=0.5;entryY=0;rounded=0;" edge="1" parent="1" source="oXa6fqSTxTpZ-BD5Uz6H-100" target="oXa6fqSTxTpZ-BD5Uz6H-101">
          <mxGeometry relative="1" as="geometry">
            <Array as="points" />
          </mxGeometry>
        </mxCell>
        <mxCell id="oXa6fqSTxTpZ-BD5Uz6H-125" value="" style="curved=1;startArrow=none;endArrow=block;exitX=1;exitY=0.74;entryX=0.5;entryY=0;rounded=0;" edge="1" parent="1" source="oXa6fqSTxTpZ-BD5Uz6H-91" target="oXa6fqSTxTpZ-BD5Uz6H-102">
          <mxGeometry relative="1" as="geometry">
            <Array as="points">
              <mxPoint x="3372" y="3348" />
            </Array>
          </mxGeometry>
        </mxCell>
        <mxCell id="oXa6fqSTxTpZ-BD5Uz6H-126" value="Ja" style="curved=1;startArrow=none;endArrow=block;exitX=0.5;exitY=1;entryX=0.5;entryY=0;rounded=0;" edge="1" parent="1" source="oXa6fqSTxTpZ-BD5Uz6H-102" target="oXa6fqSTxTpZ-BD5Uz6H-103">
          <mxGeometry relative="1" as="geometry">
            <Array as="points" />
          </mxGeometry>
        </mxCell>
        <mxCell id="oXa6fqSTxTpZ-BD5Uz6H-127" value="" style="curved=1;startArrow=none;endArrow=block;exitX=1;exitY=0.62;entryX=0.5;entryY=0;rounded=0;" edge="1" parent="1" source="oXa6fqSTxTpZ-BD5Uz6H-91" target="oXa6fqSTxTpZ-BD5Uz6H-104">
          <mxGeometry relative="1" as="geometry">
            <Array as="points">
              <mxPoint x="3641" y="3348" />
            </Array>
          </mxGeometry>
        </mxCell>
        <mxCell id="oXa6fqSTxTpZ-BD5Uz6H-128" value="Ja" style="curved=1;startArrow=none;endArrow=block;exitX=0.5;exitY=1;entryX=0.5;entryY=0;rounded=0;" edge="1" parent="1" source="oXa6fqSTxTpZ-BD5Uz6H-104" target="oXa6fqSTxTpZ-BD5Uz6H-105">
          <mxGeometry relative="1" as="geometry">
            <Array as="points" />
          </mxGeometry>
        </mxCell>
        <mxCell id="oXa6fqSTxTpZ-BD5Uz6H-129" value="" style="curved=1;startArrow=none;endArrow=block;exitX=1;exitY=0.58;entryX=0.5;entryY=0;rounded=0;" edge="1" parent="1" source="oXa6fqSTxTpZ-BD5Uz6H-91" target="oXa6fqSTxTpZ-BD5Uz6H-106">
          <mxGeometry relative="1" as="geometry">
            <Array as="points">
              <mxPoint x="3919" y="3348" />
            </Array>
          </mxGeometry>
        </mxCell>
        <mxCell id="oXa6fqSTxTpZ-BD5Uz6H-130" value="Ja" style="curved=1;startArrow=none;endArrow=block;exitX=0.5;exitY=1;entryX=0.5;entryY=0;rounded=0;" edge="1" parent="1" source="oXa6fqSTxTpZ-BD5Uz6H-106" target="oXa6fqSTxTpZ-BD5Uz6H-107">
          <mxGeometry relative="1" as="geometry">
            <Array as="points" />
          </mxGeometry>
        </mxCell>
        <mxCell id="oXa6fqSTxTpZ-BD5Uz6H-131" value="" style="curved=1;startArrow=none;endArrow=block;exitX=1;exitY=0.55;entryX=0.5;entryY=0;rounded=0;" edge="1" parent="1" source="oXa6fqSTxTpZ-BD5Uz6H-91" target="oXa6fqSTxTpZ-BD5Uz6H-108">
          <mxGeometry relative="1" as="geometry">
            <Array as="points">
              <mxPoint x="4283" y="3348" />
            </Array>
          </mxGeometry>
        </mxCell>
        <mxCell id="oXa6fqSTxTpZ-BD5Uz6H-132" value="Ja" style="curved=1;startArrow=none;endArrow=block;exitX=0.5;exitY=1;entryX=0.5;entryY=0;rounded=0;" edge="1" parent="1" source="oXa6fqSTxTpZ-BD5Uz6H-108" target="oXa6fqSTxTpZ-BD5Uz6H-109">
          <mxGeometry relative="1" as="geometry">
            <Array as="points" />
          </mxGeometry>
        </mxCell>
        <mxCell id="oXa6fqSTxTpZ-BD5Uz6H-133" value="Ja" style="curved=1;startArrow=none;endArrow=block;exitX=0.06;exitY=1;entryX=0.5;entryY=0;rounded=0;" edge="1" parent="1" source="oXa6fqSTxTpZ-BD5Uz6H-109" target="oXa6fqSTxTpZ-BD5Uz6H-110">
          <mxGeometry relative="1" as="geometry">
            <Array as="points">
              <mxPoint x="4174" y="3840" />
            </Array>
          </mxGeometry>
        </mxCell>
        <mxCell id="oXa6fqSTxTpZ-BD5Uz6H-134" value="Nee" style="curved=1;startArrow=none;endArrow=block;exitX=0.94;exitY=1;entryX=0.5;entryY=0;rounded=0;" edge="1" parent="1" source="oXa6fqSTxTpZ-BD5Uz6H-109" target="oXa6fqSTxTpZ-BD5Uz6H-111">
          <mxGeometry relative="1" as="geometry">
            <Array as="points">
              <mxPoint x="4393" y="3840" />
            </Array>
          </mxGeometry>
        </mxCell>
        <mxCell id="oXa6fqSTxTpZ-BD5Uz6H-135" value="" style="curved=1;startArrow=none;endArrow=block;exitX=0.5;exitY=1;entryX=0;entryY=0.41;rounded=0;" edge="1" parent="1" source="oXa6fqSTxTpZ-BD5Uz6H-93" target="oXa6fqSTxTpZ-BD5Uz6H-112">
          <mxGeometry relative="1" as="geometry">
            <Array as="points">
              <mxPoint x="2014" y="4052" />
            </Array>
          </mxGeometry>
        </mxCell>
        <mxCell id="oXa6fqSTxTpZ-BD5Uz6H-136" value="" style="curved=1;startArrow=none;endArrow=block;exitX=0.5;exitY=1;entryX=0;entryY=0.39;rounded=0;" edge="1" parent="1" source="oXa6fqSTxTpZ-BD5Uz6H-95" target="oXa6fqSTxTpZ-BD5Uz6H-112">
          <mxGeometry relative="1" as="geometry">
            <Array as="points">
              <mxPoint x="2295" y="4052" />
            </Array>
          </mxGeometry>
        </mxCell>
        <mxCell id="oXa6fqSTxTpZ-BD5Uz6H-137" value="" style="curved=1;startArrow=none;endArrow=block;exitX=0.5;exitY=1;entryX=0;entryY=0.34;rounded=0;" edge="1" parent="1" source="oXa6fqSTxTpZ-BD5Uz6H-97" target="oXa6fqSTxTpZ-BD5Uz6H-112">
          <mxGeometry relative="1" as="geometry">
            <Array as="points">
              <mxPoint x="2558" y="4052" />
            </Array>
          </mxGeometry>
        </mxCell>
        <mxCell id="oXa6fqSTxTpZ-BD5Uz6H-138" value="" style="curved=1;startArrow=none;endArrow=block;exitX=0.5;exitY=1;entryX=0;entryY=0.25;rounded=0;" edge="1" parent="1" source="oXa6fqSTxTpZ-BD5Uz6H-99" target="oXa6fqSTxTpZ-BD5Uz6H-112">
          <mxGeometry relative="1" as="geometry">
            <Array as="points">
              <mxPoint x="2816" y="4052" />
            </Array>
          </mxGeometry>
        </mxCell>
        <mxCell id="oXa6fqSTxTpZ-BD5Uz6H-139" value="" style="curved=1;startArrow=none;endArrow=block;exitX=0.5;exitY=1;entryX=0.17;entryY=0;rounded=0;" edge="1" parent="1" source="oXa6fqSTxTpZ-BD5Uz6H-101" target="oXa6fqSTxTpZ-BD5Uz6H-112">
          <mxGeometry relative="1" as="geometry">
            <Array as="points">
              <mxPoint x="3097" y="4052" />
            </Array>
          </mxGeometry>
        </mxCell>
        <mxCell id="oXa6fqSTxTpZ-BD5Uz6H-140" value="" style="curved=1;startArrow=none;endArrow=block;exitX=0.5;exitY=1;entryX=0.83;entryY=0;rounded=0;" edge="1" parent="1" source="oXa6fqSTxTpZ-BD5Uz6H-103" target="oXa6fqSTxTpZ-BD5Uz6H-112">
          <mxGeometry relative="1" as="geometry">
            <Array as="points">
              <mxPoint x="3372" y="4052" />
            </Array>
          </mxGeometry>
        </mxCell>
        <mxCell id="oXa6fqSTxTpZ-BD5Uz6H-141" value="" style="curved=1;startArrow=none;endArrow=block;exitX=0.5;exitY=1;entryX=1;entryY=0.24;rounded=0;" edge="1" parent="1" source="oXa6fqSTxTpZ-BD5Uz6H-105" target="oXa6fqSTxTpZ-BD5Uz6H-112">
          <mxGeometry relative="1" as="geometry">
            <Array as="points">
              <mxPoint x="3641" y="4052" />
            </Array>
          </mxGeometry>
        </mxCell>
        <mxCell id="oXa6fqSTxTpZ-BD5Uz6H-142" value="" style="curved=1;startArrow=none;endArrow=block;exitX=0.5;exitY=1;entryX=1;entryY=0.35;rounded=0;" edge="1" parent="1" source="oXa6fqSTxTpZ-BD5Uz6H-107" target="oXa6fqSTxTpZ-BD5Uz6H-112">
          <mxGeometry relative="1" as="geometry">
            <Array as="points">
              <mxPoint x="3919" y="4052" />
            </Array>
          </mxGeometry>
        </mxCell>
        <mxCell id="oXa6fqSTxTpZ-BD5Uz6H-143" value="" style="curved=1;startArrow=none;endArrow=block;exitX=0.5;exitY=1;entryX=1;entryY=0.39;rounded=0;" edge="1" parent="1" source="oXa6fqSTxTpZ-BD5Uz6H-110" target="oXa6fqSTxTpZ-BD5Uz6H-112">
          <mxGeometry relative="1" as="geometry">
            <Array as="points">
              <mxPoint x="4174" y="4052" />
            </Array>
          </mxGeometry>
        </mxCell>
        <mxCell id="oXa6fqSTxTpZ-BD5Uz6H-144" value="" style="curved=1;startArrow=none;endArrow=block;exitX=0.5;exitY=1;entryX=1;entryY=0.41;rounded=0;" edge="1" parent="1" source="oXa6fqSTxTpZ-BD5Uz6H-111" target="oXa6fqSTxTpZ-BD5Uz6H-112">
          <mxGeometry relative="1" as="geometry">
            <Array as="points">
              <mxPoint x="4393" y="4052" />
            </Array>
          </mxGeometry>
        </mxCell>
        <mxCell id="oXa6fqSTxTpZ-BD5Uz6H-145" value="" style="curved=1;startArrow=none;endArrow=block;exitX=0.5;exitY=1;entryX=0.5;entryY=0;rounded=0;" edge="1" parent="1" source="oXa6fqSTxTpZ-BD5Uz6H-112" target="oXa6fqSTxTpZ-BD5Uz6H-113">
          <mxGeometry relative="1" as="geometry">
            <Array as="points" />
          </mxGeometry>
        </mxCell>
      </root>
    </mxGraphModel>
  </diagram>
</mxfile>
